<?xml version="1.0" encoding="utf-8"?>
<!-- Generator: Adobe Illustrator 23.0.1, SVG Export Plug-In . SVG Version: 6.00 Build 0)  -->
<svg version="1.1" id="Layer_1" xmlns="http://www.w3.org/2000/svg" xmlns:xlink="http://www.w3.org/1999/xlink" x="0px" y="0px"
	 viewBox="0 0 48 38.2" style="enable-background:new 0 0 48 38.2;" xml:space="preserve">
<path d="M24,7.7L6.9,21.8c0,0,0,0,0,0.1c0,0,0,0.1,0,0.1v14.3c0,0.5,0.2,1,0.6,1.3c0.4,0.4,0.8,0.6,1.3,0.6h11.4V26.8h7.6v11.4h11.4
	c0.5,0,1-0.2,1.3-0.6c0.4-0.4,0.6-0.8,0.6-1.3V22c0-0.1,0-0.1,0-0.2L24,7.7z"/>
<path d="M47.7,18.6l-6.5-5.4V1c0-0.3-0.1-0.5-0.3-0.7c-0.2-0.2-0.4-0.3-0.7-0.3h-5.7c-0.3,0-0.5,0.1-0.7,0.3
	c-0.2,0.2-0.3,0.4-0.3,0.7v5.8l-7.3-6.1C25.6,0.3,24.9,0,24,0c-0.9,0-1.6,0.3-2.3,0.8L0.3,18.6C0.1,18.8,0,19,0,19.2
	c0,0.3,0,0.5,0.2,0.7l1.8,2.2c0.2,0.2,0.4,0.3,0.6,0.3c0.2,0,0.5,0,0.7-0.2L24,5.1l20.6,17.2c0.2,0.1,0.4,0.2,0.6,0.2h0.1
	c0.3,0,0.5-0.1,0.6-0.3l1.8-2.2c0.2-0.2,0.2-0.4,0.2-0.7C48,19,47.9,18.8,47.7,18.6L47.7,18.6z"/>
</svg>
